<?xml version="1.0" encoding="UTF-8" standalone="no"?>
<!-- Created with Inkscape (http://www.inkscape.org/) -->

<svg
   width="320mm"
   height="320mm"
   viewBox="0 0 320 320"
   version="1.1"
   id="svg5"
   inkscape:version="1.2 (dc2aeda, 2022-05-15)"
   sodipodi:docname="schoolit_thumbnail.svg"
   xml:space="preserve"
   xmlns:inkscape="http://www.inkscape.org/namespaces/inkscape"
   xmlns:sodipodi="http://sodipodi.sourceforge.net/DTD/sodipodi-0.dtd"
   xmlns="http://www.w3.org/2000/svg"
   xmlns:svg="http://www.w3.org/2000/svg"><sodipodi:namedview
     id="namedview7"
     pagecolor="#505050"
     bordercolor="#eeeeee"
     borderopacity="1"
     inkscape:showpageshadow="0"
     inkscape:pageopacity="0"
     inkscape:pagecheckerboard="0"
     inkscape:deskcolor="#505050"
     inkscape:document-units="mm"
     showgrid="false"
     inkscape:zoom="1.071637"
     inkscape:cx="502.96882"
     inkscape:cy="532.3631"
     inkscape:window-width="1440"
     inkscape:window-height="900"
     inkscape:window-x="0"
     inkscape:window-y="0"
     inkscape:window-maximized="0"
     inkscape:current-layer="g3394" /><defs
     id="defs2" /><g
     inkscape:groupmode="layer"
     id="layer2"
     inkscape:label="Ref"
     style="display:inline"><g
       id="g3391"
       inkscape:label="Computer"><rect
         style="display:inline;fill:#cccccc;fill-opacity:1;stroke:none;stroke-width:0.3;stroke-linejoin:bevel;paint-order:fill markers stroke"
         id="rect3427"
         width="139.07242"
         height="77.594063"
         x="116.98796"
         y="90.725357" /><rect
         style="display:inline;fill:#333333;fill-opacity:1;stroke:none;stroke-width:0.0852598;stroke-linejoin:bevel;paint-order:fill markers stroke"
         id="rect3507"
         width="139.07242"
         height="6.2672153"
         x="116.98796"
         y="92.515991" /><rect
         style="display:inline;fill:#333333;fill-opacity:1;stroke:none;stroke-width:0.127399;stroke-linejoin:bevel;paint-order:fill markers stroke"
         id="rect3510"
         width="28.351665"
         height="68.640892"
         x="116.98796"
         y="-167.4241"
         transform="scale(1,-1)" /><rect
         style="display:inline;fill:#ffffff;fill-opacity:1;stroke:none;stroke-width:0.0771691;stroke-linejoin:bevel;paint-order:fill markers stroke"
         id="rect3513"
         width="28.351665"
         height="25.184746"
         x="116.98796"
         y="-123.96796"
         transform="scale(1,-1)" /><path
         id="rect399"
         style="display:inline;fill:#78878c;fill-opacity:1;stroke:none;stroke-width:0.3;stroke-linejoin:bevel;paint-order:fill markers stroke"
         inkscape:label="rect399"
         d="m 116.99493,86.445886 c -2.13221,0 -3.84886,1.71665 -3.84886,3.848861 v 93.816493 c 0,2.13221 1.71665,3.84886 3.84886,3.84886 h 137.17198 c 2.13222,0 3.84887,-1.71665 3.84887,-3.84886 V 90.294747 c 0,-2.132211 -1.71665,-3.848861 -3.84887,-3.848861 z m 3.5698,6.930843 H 250.59711 V 165.18682 H 120.56473 Z" /><path
         id="rect407"
         style="display:inline;fill:#ced4d7;fill-opacity:1;stroke-width:0.12457;stroke-linejoin:bevel;paint-order:fill markers stroke;stroke:none"
         inkscape:label="rect399"
         d="m 113.14607,-172.62047 v -11.49077 c 0,-2.13221 1.71665,-3.84886 3.84886,-3.84886 h 137.17198 c 2.13222,0 3.84887,1.71665 3.84887,3.84886 v 11.49077 z"
         transform="scale(1,-1)" /><path
         id="rect2129"
         style="fill:#ced4d7;fill-opacity:1;stroke:none;stroke-width:0.3;stroke-linejoin:bevel;paint-order:fill markers stroke"
         d="m 167.02288,188.14355 c -1.85714,9.89022 -1.47587,12.38725 -7.01094,18.25419 h -3.57239 v 3.52278 h 58.44449 v -3.52278 h -3.41684 c -3.35226,-4.03717 -6.03682,-9.49403 -7.16649,-18.25419 z" /></g><g
       id="g3394"
       inkscape:label="Tablet"><rect
         style="display:inline;fill:#cccccc;fill-opacity:1;stroke:none;stroke-width:0.3;stroke-linejoin:bevel;paint-order:fill markers stroke"
         id="rect3482"
         width="55.509594"
         height="70.431526"
         x="80.578445"
         y="131.61145"
         inkscape:label="rect3482" /><rect
         style="display:inline;fill:#333333;fill-opacity:1;stroke:none;stroke-width:0.0524865;stroke-linejoin:bevel;paint-order:fill markers stroke"
         id="rect3567"
         width="52.704411"
         height="6.2672153"
         x="82.440758"
         y="131.68571" /><rect
         style="display:inline;fill:#333333;fill-opacity:1;stroke:none;stroke-width:0.127399;stroke-linejoin:bevel;paint-order:fill markers stroke"
         id="rect3569"
         width="28.351665"
         height="68.640892"
         x="82.440758"
         y="-206.59383"
         transform="scale(1,-1)" /><rect
         style="display:inline;fill:#ffffff;fill-opacity:1;stroke:none;stroke-width:0.0771691;stroke-linejoin:bevel;paint-order:fill markers stroke"
         id="rect3571"
         width="28.351665"
         height="25.184746"
         x="82.440758"
         y="-163.13768"
         transform="scale(1,-1)" /><rect
         style="display:inline;fill:#333333;fill-opacity:1;stroke:none;stroke-width:0.0519233;stroke-linejoin:bevel;paint-order:fill markers stroke"
         id="rect3576"
         width="51.579487"
         height="6.2672153"
         x="82.440758"
         y="131.68571"
         inkscape:label="rect3576" /><rect
         style="display:inline;fill:#00ffff;fill-opacity:1;stroke:none;stroke-width:0.0907337;stroke-linejoin:bevel;paint-order:fill markers stroke"
         id="rect3914-8"
         width="0.79827088"
         height="0.77230018"
         x="130.02962"
         y="133.57071"
         ry="0.38615009" /><rect
         style="display:inline;fill:#00ffff;fill-opacity:1;stroke:none;stroke-width:0.0907337;stroke-linejoin:bevel;paint-order:fill markers stroke"
         id="rect3916-6"
         width="0.79827088"
         height="0.77230018"
         x="130.02962"
         y="135.13805"
         ry="0.38615009" /><rect
         style="display:inline;fill:#00ffff;fill-opacity:1;stroke:none;stroke-width:0.0907337;stroke-linejoin:bevel;paint-order:fill markers stroke"
         id="rect3918-1"
         width="0.79827088"
         height="0.77230018"
         x="130.02962"
         y="136.70538"
         ry="0.38615009" /><rect
         style="display:inline;fill:#ff7f2a;fill-opacity:1;stroke:none;stroke-width:0.0965392;stroke-linejoin:bevel;paint-order:fill markers stroke"
         id="rect3914-81"
         width="0.84934741"
         height="0.821715"
         x="83.080727"
         y="154.90837"
         ry="0.4108575" /><rect
         style="display:inline;fill:#ff7f2a;fill-opacity:1;stroke:none;stroke-width:0.0965392;stroke-linejoin:bevel;paint-order:fill markers stroke"
         id="rect3916-0"
         width="0.84934741"
         height="0.821715"
         x="83.080727"
         y="156.57597"
         ry="0.4108575" /><rect
         style="display:inline;fill:#ff7f2a;fill-opacity:1;stroke:none;stroke-width:0.0965392;stroke-linejoin:bevel;paint-order:fill markers stroke"
         id="rect3918-3"
         width="0.84934741"
         height="0.821715"
         x="83.080727"
         y="158.24359"
         ry="0.4108575" /><rect
         style="display:inline;fill:#333333;fill-opacity:1;stroke:none;stroke-width:0.12117;stroke-linejoin:bevel;paint-order:fill markers stroke"
         id="rect3578"
         width="28.351665"
         height="62.092834"
         x="82.440758"
         y="-200.04578"
         transform="scale(1,-1)" /><rect
         style="display:inline;fill:#ffffff;fill-opacity:1;stroke:none;stroke-width:0.0771691;stroke-linejoin:bevel;paint-order:fill markers stroke"
         id="rect3580"
         width="28.351665"
         height="25.184746"
         x="82.440758"
         y="-163.13768"
         transform="scale(1,-1)" /><path
         id="rect2240"
         style="display:inline;fill:#657275;fill-opacity:1;stroke-width:0.3;stroke-linejoin:bevel;paint-order:fill markers stroke;stroke:none"
         d="m 81.652897,124.45184 c -2.294563,0 -4.141866,1.84729 -4.141866,4.14186 v 76.52505 c 0,2.29454 1.847303,4.14186 4.141866,4.14186 h 54.041143 c 2.29457,0 4.14187,-1.84732 4.14187,-4.14186 V 128.5937 c 0,-2.29457 -1.8473,-4.14186 -4.14187,-4.14186 z m 22.753133,3.84782 h 8.53488 c 0.41606,0 0.75086,0.3348 0.75086,0.75086 0,0.41606 -0.3348,0.75086 -0.75086,0.75086 h -8.53488 c -0.41606,0 -0.75086,-0.3348 -0.75086,-0.75086 0,-0.41606 0.3348,-0.75086 0.75086,-0.75086 z m -17.702795,5.0276 h 43.940475 c 1.81428,0 3.27525,1.46043 3.27525,3.27474 v 60.50845 c 0,1.81431 -1.46097,3.27473 -3.27525,3.27473 H 86.703235 c -1.814305,0 -3.275252,-1.46042 -3.275252,-3.27473 V 136.602 c 0,-1.81431 1.460947,-3.27474 3.275252,-3.27474 z m 21.970235,70.6081 c 1.08942,-1.1e-4 1.9726,0.88307 1.97249,1.97249 -1.8e-4,1.08922 -0.88327,1.97208 -1.97249,1.97197 -1.08922,1.1e-4 -1.97231,-0.88275 -1.97249,-1.97197 -1.1e-4,-1.08942 0.88307,-1.9726 1.97249,-1.97249 z"
         sodipodi:nodetypes="sssssssssssssssssssssssssccccc"
         inkscape:label="rect2240" /></g><g
       id="g3397"
       inkscape:label="Phone"><rect
         style="display:inline;fill:#cccccc;fill-opacity:1;stroke:none;stroke-width:0.3;stroke-linejoin:bevel;paint-order:fill markers stroke"
         id="rect3487"
         width="29.24699"
         height="48.04863"
         x="57.300228"
         y="153.09904"
         inkscape:label="rect3487" /><rect
         style="display:inline;fill:#333333;fill-opacity:1;stroke:none;stroke-width:0.0385455;stroke-linejoin:bevel;paint-order:fill markers stroke"
         id="rect3576-9"
         width="28.424879"
         height="6.2672153"
         x="57.826191"
         y="151.70406" /><rect
         style="display:inline;fill:#333333;fill-opacity:1;stroke:none;stroke-width:0.0830937;stroke-linejoin:bevel;paint-order:fill markers stroke"
         id="rect3578-5"
         width="16.673738"
         height="49.651527"
         x="57.826191"
         y="-207.6228"
         transform="scale(1,-1)" /><rect
         style="display:inline;fill:#ffffff;fill-opacity:1;stroke:none;stroke-width:0.0471953;stroke-linejoin:bevel;paint-order:fill markers stroke"
         id="rect3580-3"
         width="16.673738"
         height="16.017467"
         x="57.826191"
         y="-173.98874"
         transform="scale(1,-1)" /><path
         id="rect2955"
         style="fill:#78878c;fill-opacity:1;stroke-width:0.3;stroke-linejoin:bevel;paint-order:fill markers stroke;stroke:none"
         d="m 59.94673,148.78575 c -2.099879,0 -3.790466,1.69007 -3.790466,3.78995 v 53.35178 c 0,2.09988 1.690587,3.79047 3.790466,3.79047 h 24.549923 c 2.099879,0 3.790466,-1.69059 3.790466,-3.79047 V 152.5757 c 0,-2.09988 -1.690587,-3.78995 -3.790466,-3.78995 z m -1.040247,6.36809 h 26.630933 v 43.56478 H 58.906483 Z m 13.315467,46.94752 a 2.3157277,2.3157277 0 0 1 2.315621,2.31614 2.3157277,2.3157277 0 0 1 -2.315621,2.31562 2.3157277,2.3157277 0 0 1 -2.316138,-2.31562 2.3157277,2.3157277 0 0 1 2.316138,-2.31614 z"
         inkscape:label="rect2955" /></g><rect
       style="fill:#00ffff;fill-opacity:1;stroke:none;stroke-width:0.21514;stroke-linejoin:bevel;paint-order:fill markers stroke"
       id="rect3774"
       width="4.2181373"
       height="0.821715"
       x="122.59583"
       y="94.116692"
       ry="0.4108575" /><rect
       style="fill:#00ffff;fill-opacity:1;stroke:none;stroke-width:0.21514;stroke-linejoin:bevel;paint-order:fill markers stroke"
       id="rect3828"
       width="4.2181373"
       height="0.821715"
       x="122.59583"
       y="95.784302"
       ry="0.4108575" /><rect
       style="fill:#00ffff;fill-opacity:1;stroke:none;stroke-width:0.21514;stroke-linejoin:bevel;paint-order:fill markers stroke"
       id="rect3830"
       width="4.2181373"
       height="0.821715"
       x="122.59583"
       y="97.45192"
       ry="0.4108575" /><rect
       style="display:inline;fill:#00ffff;fill-opacity:1;stroke:none;stroke-width:0.16369;stroke-linejoin:bevel;paint-order:fill markers stroke"
       id="rect3774-8"
       width="3.2093854"
       height="0.62520492"
       x="86.601852"
       y="134.22623"
       ry="0.31260246" /><rect
       style="display:inline;fill:#00ffff;fill-opacity:1;stroke:none;stroke-width:0.16369;stroke-linejoin:bevel;paint-order:fill markers stroke"
       id="rect3828-3"
       width="3.2093854"
       height="0.62520492"
       x="86.601852"
       y="135.49503"
       ry="0.31260246" /><rect
       style="display:inline;fill:#00ffff;fill-opacity:1;stroke:none;stroke-width:0.16369;stroke-linejoin:bevel;paint-order:fill markers stroke"
       id="rect3830-6"
       width="3.2093854"
       height="0.62520492"
       x="86.601852"
       y="136.76382"
       ry="0.31260246" /><rect
       style="display:inline;fill:#00ffff;fill-opacity:1;stroke:none;stroke-width:0.140887;stroke-linejoin:bevel;paint-order:fill markers stroke"
       id="rect3774-0"
       width="2.7623053"
       height="0.53811139"
       x="59.531437"
       y="155.58644"
       ry="0.26905569" /><rect
       style="display:inline;fill:#00ffff;fill-opacity:1;stroke:none;stroke-width:0.140887;stroke-linejoin:bevel;paint-order:fill markers stroke"
       id="rect3828-4"
       width="2.7623053"
       height="0.53811139"
       x="59.531437"
       y="156.33195"
       ry="0.26905569" /><rect
       style="display:inline;fill:#00ffff;fill-opacity:1;stroke:none;stroke-width:0.140887;stroke-linejoin:bevel;paint-order:fill markers stroke"
       id="rect3830-0"
       width="2.7623053"
       height="0.53811139"
       x="59.531437"
       y="157.0775"
       ry="0.26905569" /><rect
       style="fill:#00ffff;fill-opacity:1;stroke:none;stroke-width:0.0965392;stroke-linejoin:bevel;paint-order:fill markers stroke"
       id="rect3914"
       width="0.84934741"
       height="0.821715"
       x="248.54213"
       y="94.116692"
       ry="0.4108575" /><rect
       style="fill:#00ffff;fill-opacity:1;stroke:none;stroke-width:0.0965392;stroke-linejoin:bevel;paint-order:fill markers stroke"
       id="rect3916"
       width="0.84934741"
       height="0.821715"
       x="248.54213"
       y="95.784302"
       ry="0.4108575" /><rect
       style="fill:#00ffff;fill-opacity:1;stroke:none;stroke-width:0.0965392;stroke-linejoin:bevel;paint-order:fill markers stroke"
       id="rect3918"
       width="0.84934741"
       height="0.821715"
       x="248.54213"
       y="97.45192"
       ry="0.4108575" /><circle
       style="fill:#333333;fill-opacity:1;stroke:none;stroke-width:0.3;stroke-linejoin:bevel;paint-order:fill markers stroke"
       id="path4169"
       cx="132.90302"
       cy="112.07008"
       r="8.6493921" /><circle
       style="display:inline;fill:#333333;fill-opacity:1;stroke:none;stroke-width:0.3;stroke-linejoin:bevel;paint-order:fill markers stroke"
       id="path4169-2"
       cx="97.28241"
       cy="150.29482"
       r="8.6493921" /><circle
       style="display:inline;fill:#333333;fill-opacity:1;stroke:none;stroke-width:0.177419;stroke-linejoin:bevel;paint-order:fill markers stroke"
       id="path4169-6"
       cx="66.219009"
       cy="165.91951"
       r="5.115232" /></g></svg>
