<svg width="320" height="180" viewBox="0 0 320 180" xmlns="http://www.w3.org/2000/svg">
  <defs>
    <linearGradient id="bgGradient7" x1="0%" y1="0%" x2="100%" y2="100%">
      <stop offset="0%" style="stop-color:#1e293b;stop-opacity:1" />
      <stop offset="100%" style="stop-color:#0f172a;stop-opacity:1" />
    </linearGradient>
    <linearGradient id="iconGradient7" x1="0%" y1="0%" x2="100%" y2="100%">
      <stop offset="0%" style="stop-color:#dc2626;stop-opacity:1" />
      <stop offset="100%" style="stop-color:#ef4444;stop-opacity:1" />
    </linearGradient>
  </defs>
  
  <!-- Background -->
  <rect width="320" height="180" fill="url(#bgGradient7)" rx="8"/>
  
  <!-- Main cloud -->
  <path d="M 100 100 Q 80 80 120 80 Q 140 60 160 80 Q 180 60 200 80 Q 220 80 200 100 Q 220 120 200 120 Q 180 140 160 120 Q 140 140 120 120 Q 100 120 100 100 Z" 
        fill="url(#iconGradient7)" opacity="0.8"/>
  
  <!-- Server racks -->
  <rect x="80" y="130" width="60" height="40" fill="none" stroke="url(#iconGradient7)" stroke-width="2"/>
  <rect x="85" y="135" width="50" height="6" fill="url(#iconGradient7)" opacity="0.6"/>
  <rect x="85" y="145" width="50" height="6" fill="url(#iconGradient7)" opacity="0.6"/>
  <rect x="85" y="155" width="50" height="6" fill="url(#iconGradient7)" opacity="0.6"/>
  
  <rect x="180" y="130" width="60" height="40" fill="none" stroke="url(#iconGradient7)" stroke-width="2"/>
  <rect x="185" y="135" width="50" height="6" fill="url(#iconGradient7)" opacity="0.6"/>
  <rect x="185" y="145" width="50" height="6" fill="url(#iconGradient7)" opacity="0.6"/>
  <rect x="185" y="155" width="50" height="6" fill="url(#iconGradient7)" opacity="0.6"/>
  
  <!-- Connection lines -->
  <path d="M 140 100 Q 140 120 140 130" stroke="url(#iconGradient7)" stroke-width="2" fill="none" opacity="0.6"/>
  <path d="M 180 100 Q 180 120 180 130" stroke="url(#iconGradient7)" stroke-width="2" fill="none" opacity="0.6"/>
  
  <!-- Cloud indicators -->
  <circle cx="120" cy="90" r="3" fill="url(#iconGradient7)"/>
  <circle cx="160" cy="90" r="3" fill="url(#iconGradient7)"/>
  <circle cx="200" cy="90" r="3" fill="url(#iconGradient7)"/>
</svg>
