<svg width="320" height="180" viewBox="0 0 320 180" xmlns="http://www.w3.org/2000/svg">
  <defs>
    <linearGradient id="bgGradient4" x1="0%" y1="0%" x2="100%" y2="100%">
      <stop offset="0%" style="stop-color:#1e293b;stop-opacity:1" />
      <stop offset="100%" style="stop-color:#0f172a;stop-opacity:1" />
    </linearGradient>
    <linearGradient id="iconGradient4" x1="0%" y1="0%" x2="100%" y2="100%">
      <stop offset="0%" style="stop-color:#dc2626;stop-opacity:1" />
      <stop offset="100%" style="stop-color:#ef4444;stop-opacity:1" />
    </linearGradient>
  </defs>
  
  <!-- Background -->
  <rect width="320" height="180" fill="url(#bgGradient4)" rx="8"/>
  
  <!-- Rocket body -->
  <rect x="150" y="100" width="20" height="60" fill="url(#iconGradient4)" rx="2"/>
  
  <!-- Rocket nose -->
  <path d="M 150 100 L 160 80 L 170 100 Z" fill="url(#iconGradient4)"/>
  
  <!-- Rocket fins -->
  <path d="M 150 160 L 140 180 L 150 160" fill="url(#iconGradient4)" opacity="0.8"/>
  <path d="M 170 160 L 180 180 L 170 160" fill="url(#iconGradient4)" opacity="0.8"/>
  
  <!-- Flame -->
  <path d="M 155 160 Q 160 170 155 180 Q 160 170 165 160" fill="url(#iconGradient4)" opacity="0.6"/>
  
  <!-- Growth chart -->
  <path d="M 80 140 L 100 120 L 120 100 L 140 80" stroke="url(#iconGradient4)" stroke-width="3" fill="none" opacity="0.8"/>
  <circle cx="80" cy="140" r="3" fill="url(#iconGradient4)"/>
  <circle cx="100" cy="120" r="3" fill="url(#iconGradient4)"/>
  <circle cx="120" cy="100" r="3" fill="url(#iconGradient4)"/>
  <circle cx="140" cy="80" r="3" fill="url(#iconGradient4)"/>
  
  <!-- Speed lines -->
  <path d="M 200 90 L 220 90" stroke="url(#iconGradient4)" stroke-width="2" opacity="0.6"/>
  <path d="M 205 100 L 225 100" stroke="url(#iconGradient4)" stroke-width="2" opacity="0.4"/>
  <path d="M 210 110 L 230 110" stroke="url(#iconGradient4)" stroke-width="2" opacity="0.6"/>
</svg>
