<?xml version="1.0" encoding="UTF-8" standalone="no"?>
<!-- Created with Inkscape (http://www.inkscape.org/) -->

<svg
   version="1.1"
   id="svg2"
   width="119"
   height="31"
   viewBox="0 0 119 31"
   sodipodi:docname="logo.svg"
   inkscape:version="1.2 (dc2aeda, 2022-05-15)"
   xmlns:inkscape="http://www.inkscape.org/namespaces/inkscape"
   xmlns:sodipodi="http://sodipodi.sourceforge.net/DTD/sodipodi-0.dtd"
   xmlns="http://www.w3.org/2000/svg"
   xmlns:svg="http://www.w3.org/2000/svg"
   xmlns:rdf="http://www.w3.org/1999/02/22-rdf-syntax-ns#"
   xmlns:cc="http://creativecommons.org/ns#"
   xmlns:dc="http://purl.org/dc/elements/1.1/">
  <metadata
     id="metadata8">
    <rdf:RDF>
      <cc:Work
         rdf:about="">
        <dc:format>image/svg+xml</dc:format>
        <dc:type
           rdf:resource="http://purl.org/dc/dcmitype/StillImage" />
      </cc:Work>
    </rdf:RDF>
  </metadata>
  <defs
     id="defs6" />
  <sodipodi:namedview
     pagecolor="#c7c7c7"
     bordercolor="#666666"
     borderopacity="1"
     objecttolerance="10"
     gridtolerance="10"
     guidetolerance="10"
     inkscape:pageopacity="0"
     inkscape:pageshadow="2"
     inkscape:window-width="1246"
     inkscape:window-height="417"
     id="namedview4"
     showgrid="false"
     inkscape:zoom="2.088"
     inkscape:cx="66.570881"
     inkscape:cy="8.6206897"
     inkscape:window-x="0"
     inkscape:window-y="25"
     inkscape:window-maximized="0"
     inkscape:current-layer="layer2"
     showguides="false"
     inkscape:guide-bbox="true"
     inkscape:showpageshadow="0"
     inkscape:pagecheckerboard="0"
     inkscape:deskcolor="#c7c7c7">
    <sodipodi:guide
       position="30.828934,24.312092"
       orientation="0,1"
       id="guide83"
       inkscape:locked="false" />
    <sodipodi:guide
       position="30.828934,32.334339"
       orientation="0,1"
       id="guide85"
       inkscape:locked="false" />
    <sodipodi:guide
       position="241.17388,65.472248"
       orientation="1,0"
       id="guide87"
       inkscape:locked="false" />
    <sodipodi:guide
       position="10.106277,65.472248"
       orientation="1,0"
       id="guide93"
       inkscape:locked="false" />
    <sodipodi:guide
       position="142.9204,56.312092"
       orientation="1,0"
       id="guide97"
       inkscape:locked="false" />
    <sodipodi:guide
       position="233.65435,65.472248"
       orientation="1,0"
       id="guide104"
       inkscape:locked="false" />
    <sodipodi:guide
       position="154.79492,53.472656"
       orientation="1,0"
       id="guide113"
       inkscape:locked="false" />
  </sodipodi:namedview>
  <g
     inkscape:groupmode="layer"
     id="layer1"
     inkscape:label="Layer 1"
     style="display:inline"
     transform="translate(0,-68)" />
  <g
     inkscape:groupmode="layer"
     id="layer2"
     inkscape:label="Layer 2"
     style="display:inline;opacity:1"
     transform="translate(0,-68)">
    <path
       style="font-style:normal;font-weight:bold;font-size:40px;line-height:1.25;font-family:sans-serif;letter-spacing:0px;word-spacing:0px;fill:#ff0000;fill-opacity:1;stroke:none;stroke-width:0.49751"
       d="m 74.771421,71.178523 v 3.230903 0.759869 11.180379 L 69.49509,76.399467 H 65.316784 V 92.099224 H 6.5279642 V 76.399467 H 2.7869196 V 96.090964 H 68.863485 v -3.19398 -0.79776 -11.142484 l 5.276331,9.950204 h 4.178311 V 75.169295 h 34.764503 v -3.990772 z"
       id="path52"
       inkscape:connector-curvature="0" />
    <path
       inkscape:connector-curvature="0"
       id="path54"
       style="font-style:normal;font-weight:bold;font-size:40px;line-height:1.25;font-family:sans-serif;letter-spacing:0px;word-spacing:0px;fill:#333333;fill-opacity:1;stroke:none;stroke-width:0.49751"
       d="m 24.608574,88.264124 h -5.849633 l -0.923116,2.64303 h -3.760478 l 5.3735,-14.507484 h 4.460103 l 5.3735,14.507484 h -3.760478 z m -4.916802,-2.69161 h 3.974253 l -1.982268,-5.771895 z" />
    <path
       inkscape:connector-curvature="0"
       id="path56"
       style="font-style:normal;font-weight:bold;font-size:40px;line-height:1.25;font-family:sans-serif;letter-spacing:0px;word-spacing:0px;fill:#333333;fill-opacity:1;stroke:none;stroke-width:0.49751"
       d="m 35.621395,79.227317 v 8.852187 h 1.340946 q 2.293212,0 3.498119,-1.13689 1.214625,-1.13689 1.214625,-3.30378 0,-2.157173 -1.204908,-3.284345 -1.204908,-1.127172 -3.507836,-1.127172 z M 31.88035,76.39967 h 3.945101 q 3.30378,0 4.916802,0.476133 1.622739,0.466416 2.779062,1.593588 1.020285,0.981417 1.515852,2.26406 0.495567,1.282644 0.495567,2.905383 0,1.64217 -0.495567,2.93453 -0.495567,1.28265 -1.515852,2.26407 -1.16604,1.12717 -2.798496,1.6033 -1.632456,0.46642 -4.897368,0.46642 H 31.88035 Z" />
    <path
       inkscape:connector-curvature="0"
       id="path58"
       style="font-style:normal;font-weight:bold;font-size:40px;line-height:1.25;font-family:sans-serif;letter-spacing:0px;word-spacing:0px;fill:#333333;fill-opacity:1;stroke:none;stroke-width:0.49751"
       d="m 57.87677,88.264124 h -5.849637 l -0.923111,2.64303 H 47.343556 L 52.71704,76.39967 h 4.460106 l 5.3735,14.507484 h -3.760482 z m -4.916805,-2.69161 h 3.974257 l -1.982271,-5.771895 z" />
    <path
       inkscape:connector-curvature="0"
       id="path62"
       style="font-style:normal;font-weight:bold;font-size:40px;line-height:1.25;font-family:sans-serif;letter-spacing:0px;word-spacing:0px;fill:#333333;fill-opacity:1;stroke:none;stroke-width:0.49751"
       d="m 92.694237,76.856369 v 3.070572 q -1.195194,-0.534435 -2.33208,-0.806511 -1.136891,-0.272076 -2.147459,-0.272076 -1.340945,0 -1.982265,0.369246 -0.641326,0.369246 -0.641326,1.146606 0,0.58302 0.42755,0.913397 0.437262,0.320662 1.574153,0.55387 l 1.59359,0.320661 q 2.419533,0.485849 3.439817,1.476983 1.020284,0.991134 1.020284,2.817927 0,2.4001 -1.428397,3.57586 -1.418685,1.16604 -4.343499,1.16604 -1.379815,0 -2.769347,-0.26236 -1.389531,-0.26236 -2.779063,-0.77736 v -3.15803 q 1.389532,0.7385 2.681895,1.11746 1.302079,0.36925 2.506984,0.36925 1.224343,0 1.87538,-0.40812 0.651042,-0.40811 0.651042,-1.16604 0,-0.68019 -0.446983,-1.04943 -0.437267,-0.36925 -1.758779,-0.66076 l -1.447829,-0.320661 q -2.176608,-0.466416 -3.187176,-1.4867 -1.000852,-1.020286 -1.000852,-2.749911 0,-2.166891 1.399248,-3.332931 1.399248,-1.16604 4.022834,-1.16604 1.195194,0 2.458403,0.184623 1.263209,0.174906 2.613875,0.534435 z" />
    <path
       inkscape:connector-curvature="0"
       id="path64"
       style="font-style:normal;font-weight:bold;font-size:40px;line-height:1.25;font-family:sans-serif;letter-spacing:0px;word-spacing:0px;fill:#333333;fill-opacity:1;stroke:none;stroke-width:0.49751"
       d="m 97.757385,76.39967 h 3.741045 v 5.295764 l 5.39294,-5.295764 h 4.3435 l -6.98653,6.869919 7.70558,7.637565 h -4.68359 l -5.7719,-5.7136 v 5.7136 h -3.741045 z" />
    <path
       inkscape:connector-curvature="0"
       id="path66"
       style="font-style:normal;font-weight:bold;font-size:40px;line-height:1.25;font-family:sans-serif;letter-spacing:0px;word-spacing:0px;fill:#ff0000;fill-opacity:1;stroke:none;stroke-width:0.49751"
       d="m 114.0048,76.39967 h 3.74105 v 14.507484 h -3.74105 z" />
    <path
       d="m 69.913003,96.090744 h 47.832847 v -3.99116 H 69.913003 Z"
       style="font-style:normal;font-weight:bold;font-size:40px;line-height:1.25;font-family:sans-serif;letter-spacing:0px;word-spacing:0px;fill:#333333;fill-opacity:1;stroke:none;stroke-width:0.967514"
       id="path81"
       inkscape:connector-curvature="0"
       sodipodi:nodetypes="ccccc" />
    <path
       style="font-style:normal;font-weight:bold;font-size:40px;line-height:1.25;font-family:sans-serif;letter-spacing:0px;word-spacing:0px;fill:#333333;fill-opacity:1;stroke:none;stroke-width:0.915511"
       d="m 114.00478,71.178523 v 3.990772 h 3.74104 v -3.990772 z"
       id="path89"
       inkscape:connector-curvature="0" />
    <path
       d="M 2.7873216,75.169403 H 73.680122 V 71.178252 H 2.7873216 Z"
       style="font-style:normal;font-weight:bold;font-size:40px;line-height:1.25;font-family:sans-serif;letter-spacing:0px;word-spacing:0px;fill:#333333;fill-opacity:1;stroke:none;stroke-width:1.17847"
       id="path91"
       inkscape:connector-curvature="0"
       sodipodi:nodetypes="ccccc" />
  </g>
</svg>
